HIERARCHY
ROOT Pelvis
{
	OFFSET -0.217368 -24.078917 2.858379
	CHANNELS 6 Xposition Yposition Zposition Zrotation Yrotation Xrotation 
	JOINT Left_hip
	{
		OFFSET 5.858135 -8.228005 -1.766408
		CHANNELS 3 Zrotation Yrotation Xrotation
		JOINT Left_knee
		{
			OFFSET 4.345143 -38.646942 0.803700
			CHANNELS 3 Zrotation Yrotation Xrotation
			JOINT Left_ankle
			{
				OFFSET -1.479033 -42.687447 -3.742800
				CHANNELS 3 Zrotation Yrotation Xrotation
				JOINT Left_foot
				{
					OFFSET 4.105436 -6.028605 12.204244
					CHANNELS 3 Zrotation Yrotation Xrotation
					End Site
					{
						OFFSET 0.000000 0.000000 0.000000
					}
				}
			}
		}
	}
	JOINT Right_hip
	{
		OFFSET -6.030973 -9.051328 -1.354253
		CHANNELS 3 Zrotation Yrotation Xrotation
		JOINT Right_knee
		{
			OFFSET -4.325663 -38.368790 -0.484304
			CHANNELS 3 Zrotation Yrotation Xrotation
			JOINT Right_ankle
			{
				OFFSET 1.905555 -42.004566 -3.456167
				CHANNELS 3 Zrotation Yrotation Xrotation
				JOINT Right_foot
				{
					OFFSET -3.483987 -6.210554 13.032330
					CHANNELS 3 Zrotation Yrotation Xrotation
					End Site
					{
						OFFSET 0.000000 0.000000 0.000000
					}
				}
			}
		}
	}
	JOINT Spine1
	{
		OFFSET 0.443945 12.440353 -3.838522
		CHANNELS 3 Zrotation Yrotation Xrotation
		JOINT Spine2
		{
			OFFSET 0.448844 13.795640 2.682033
			CHANNELS 3 Zrotation Yrotation Xrotation
			JOINT Spine3
			{
				OFFSET -0.226460 5.603239 0.285504
				CHANNELS 3 Zrotation Yrotation Xrotation
				JOINT Neck
				{
					OFFSET -1.339018 21.163553 -3.346758
					CHANNELS 3 Zrotation Yrotation Xrotation
					JOINT Head
					{
						OFFSET 1.011321 8.893734 5.040987
						CHANNELS 3 Zrotation Yrotation Xrotation
						End Site
						{
							OFFSET 0.000000 0.000000 0.000000
						}
					}
				}
				JOINT Left_collar
				{
					OFFSET 7.170247 11.399971 -1.889817
					CHANNELS 3 Zrotation Yrotation Xrotation
					JOINT Left_shoulder
					{
						OFFSET 12.292140 4.520507 -1.904600
						CHANNELS 3 Zrotation Yrotation Xrotation
						JOINT Left_elbow
						{
							OFFSET 25.533188 -1.564902 -2.294648
							CHANNELS 3 Zrotation Yrotation Xrotation
							JOINT Left_wrist
							{
								OFFSET 26.570929 1.269810 -0.737473
								CHANNELS 3 Zrotation Yrotation Xrotation
								JOINT Left_palm
								{
									OFFSET 8.669054 -1.063602 -1.559429
									CHANNELS 3 Zrotation Yrotation Xrotation
									End Site
									{
										OFFSET 0.000000 0.000000 0.000000
									}
								}
							}
						}
					}
				}
				JOINT Right_collar
				{
					OFFSET -8.295364 11.247234 -2.370738
					CHANNELS 3 Zrotation Yrotation Xrotation
					JOINT Right_shoulder
					{
						OFFSET -11.322830 4.685326 -0.847207
						CHANNELS 3 Zrotation Yrotation Xrotation
						JOINT Right_elbow
						{
							OFFSET -26.012751 -1.436928 -3.126872
							CHANNELS 3 Zrotation Yrotation Xrotation
							JOINT Right_wrist
							{
								OFFSET -26.910841 0.679372 -0.602677
								CHANNELS 3 Zrotation Yrotation Xrotation
								JOINT Right_palm
								{
									OFFSET -8.875370 -0.865157 -1.010708
									CHANNELS 3 Zrotation Yrotation Xrotation
									End Site
									{
										OFFSET 0.000000 0.000000 0.000000
									}
								}
							}
						}
					}
				}
			}
		}
	}
}
MOTION
Frames: 8
Frame Time: 0.016667
-1.757654 18.138956 -22.298292 -1.819963 23.889031 6.013056 24.602207 15.844034 -98.307844 -19.591485 32.447332 116.185896 8.839703 13.165520 -34.035626 0.000000 0.000000 0.000000 -51.290172 -22.293158 -60.214198 59.886285 -56.808014 79.286933 -17.918482 -53.731581 -17.712234 0.000000 0.000000 0.000000 -15.128945 11.097154 92.226180 13.739667 -2.517039 -25.424577 6.772609 22.072286 30.612187 -9.246008 7.221846 -0.688962 0.000000 0.000000 0.000000 1.939403 -16.946184 5.668130 -18.512283 -13.417466 -0.448180 142.426600 -72.224678 -124.687307 0.000000 0.000000 0.000000 0.000000 0.000000 0.000000 -18.333848 33.610209 7.706832 38.395912 39.886043 9.025252 -75.353515 66.453572 -49.840763 0.000000 0.000000 0.000000 0.000000 0.000000 0.000000 
-1.938368 17.182333 -22.183905 -2.214051 23.992872 3.839089 23.330168 14.369462 -98.138241 -17.294040 30.582617 120.369163 8.832549 12.524091 -35.340819 0.000000 0.000000 0.000000 -49.783231 -21.393325 -60.214212 56.075985 -57.345198 84.660160 -17.021333 -52.525821 -19.061286 0.000000 0.000000 0.000000 -17.832544 13.587975 90.702048 15.104899 -3.062511 -24.058084 7.881468 24.718149 31.312893 -9.314225 7.320201 0.204816 0.000000 0.000000 0.000000 1.859351 -16.559103 5.544718 -17.446479 -12.890874 -0.516811 139.489251 -72.066195 -120.939024 0.000000 0.000000 0.000000 0.000000 0.000000 0.000000 -18.016906 33.527156 7.762960 39.691394 41.392757 9.971129 -72.370883 65.308146 -46.496657 0.000000 0.000000 0.000000 0.000000 0.000000 0.000000 
-2.052457 16.330362 -22.147932 -2.507110 23.536066 1.783848 22.651355 13.544815 -97.876436 -15.476250 28.797071 123.744958 8.782145 11.666199 -36.288679 0.000000 0.000000 0.000000 -48.805970 -20.771085 -60.116399 51.857001 -57.062605 89.803276 -15.430612 -50.725403 -22.104233 0.000000 0.000000 0.000000 -19.957254 15.567965 89.945775 15.841653 -3.436854 -22.948634 8.155922 27.424646 31.507535 -9.040913 7.148199 1.086598 0.000000 0.000000 0.000000 2.145839 -16.248113 5.423781 -16.292727 -13.284255 -0.488011 135.735667 -71.755705 -116.105220 0.000000 0.000000 0.000000 0.000000 0.000000 0.000000 -16.621562 33.215613 8.016071 40.833410 40.900294 10.162361 -73.427596 65.804782 -47.744980 0.000000 0.000000 0.000000 0.000000 0.000000 0.000000 
-2.194213 15.572893 -22.153934 -2.556644 22.606383 -0.434150 22.843926 13.427426 -96.481175 -14.471081 27.517196 125.423323 8.743877 10.214156 -38.030788 0.000000 0.000000 0.000000 -47.348758 -20.155169 -60.710715 47.223795 -56.102111 95.019052 -14.328204 -49.872267 -24.804117 0.000000 0.000000 0.000000 -21.281461 16.778984 89.487357 14.438606 -3.169283 -22.354372 8.722824 28.174117 31.902929 -8.664738 6.844426 0.990971 0.000000 0.000000 0.000000 3.359431 -15.188294 5.014141 -16.897488 -14.283393 -0.380612 128.907692 -72.665052 -108.969507 0.000000 0.000000 0.000000 0.000000 0.000000 0.000000 -16.109689 32.517092 7.980283 42.768173 41.353451 10.973220 -73.992618 66.354277 -48.664005 0.000000 0.000000 0.000000 0.000000 0.000000 0.000000 
-2.322732 14.801317 -22.190418 -2.708815 21.624900 -1.570687 22.970539 13.621417 -96.715341 -13.671212 26.883513 127.463868 8.435545 7.187589 -38.538313 0.000000 0.000000 0.000000 -46.319814 -19.973061 -61.779634 44.383977 -55.305856 98.172492 -12.792074 -48.927267 -29.071971 0.000000 0.000000 0.000000 -22.529971 17.678838 88.320182 13.801620 -3.035931 -22.131042 9.025250 29.159359 32.303712 -8.180499 6.481019 1.595803 0.000000 0.000000 0.000000 3.160513 -14.585025 4.832528 -16.585187 -14.853501 -0.330835 118.702933 -73.957416 -98.883709 0.000000 0.000000 0.000000 0.000000 0.000000 0.000000 -14.299301 32.670055 8.414606 42.506060 41.057601 10.769409 -72.198500 65.964725 -46.913164 0.000000 0.000000 0.000000 0.000000 0.000000 0.000000 
-2.462051 13.994287 -22.234873 -2.790504 21.369502 -2.276820 22.531515 13.423808 -97.931488 -13.209788 27.052459 129.449369 8.232935 6.658644 -37.412581 0.000000 0.000000 0.000000 -46.037791 -19.963533 -62.181556 44.259280 -55.965716 99.109689 -12.498261 -49.077312 -30.115640 0.000000 0.000000 0.000000 -22.797431 17.551852 87.034748 12.676413 -2.858435 -21.292367 8.916321 29.110541 32.302168 -7.881647 6.278185 2.760938 0.000000 0.000000 0.000000 2.912677 -14.223470 4.728021 -17.059377 -16.478066 -0.151364 104.041299 -73.855512 -83.425805 0.000000 0.000000 0.000000 0.000000 0.000000 0.000000 -13.674948 32.155912 8.429450 42.788039 42.220491 11.325899 -71.063393 64.727586 -45.004587 0.000000 0.000000 0.000000 0.000000 0.000000 0.000000 
-2.623207 13.508036 -22.250010 -2.867497 21.900134 -2.499648 21.597390 12.866509 -100.124379 -12.729250 27.166841 131.432933 8.080194 7.297658 -35.465155 0.000000 0.000000 0.000000 -46.576349 -20.362145 -62.353612 45.084834 -56.622466 98.659507 -12.298138 -48.866605 -30.655298 0.000000 0.000000 0.000000 -22.542213 17.032620 86.110231 12.324880 -2.846762 -20.695733 9.075447 29.545026 32.646411 -7.324647 5.832120 3.234573 0.000000 0.000000 0.000000 2.771419 -14.559325 4.841574 -18.297674 -18.103965 0.085780 97.583474 -71.758413 -74.866823 0.000000 0.000000 0.000000 0.000000 0.000000 0.000000 -13.848043 32.059368 8.368734 43.432736 43.606795 12.115766 -68.840591 63.774238 -42.554918 0.000000 0.000000 0.000000 0.000000 0.000000 0.000000 
-2.818785 13.150080 -22.253660 -2.942456 22.587083 -3.081812 21.514207 12.895138 -100.676284 -12.541267 26.912052 131.821614 7.905553 6.765245 -34.680895 0.000000 0.000000 0.000000 -47.544712 -20.567964 -61.424407 46.855222 -57.215106 96.816937 -11.728882 -48.296091 -32.259728 0.000000 0.000000 0.000000 -22.457400 16.850943 85.762695 11.669502 -2.718665 -20.295977 9.725416 29.831724 32.753290 -7.206167 5.723601 2.781755 0.000000 0.000000 0.000000 2.376057 -14.647698 4.887813 -19.624451 -19.520368 0.341058 90.760779 -69.079446 -65.745512 0.000000 0.000000 0.000000 0.000000 0.000000 0.000000 -13.656793 31.699836 8.323590 43.452343 43.888294 12.239083 -66.642588 61.514104 -39.203746 0.000000 0.000000 0.000000 0.000000 0.000000 0.000000 
